# xmcd
#
# Track frame offsets:
#	150
#	18287
#	33596
#	46796
#	59406
#	72329
#	97056
#	114481
#	129998
#	147436
#	161006
#	181051
#
# Disc length: 2830 seconds
# Revision: 0
# Processed by: cddbd v1.5.2PL0 Copyright (c) Steve Scherf et al.
# Submitted via: dBpowerAMP V12.0
#
DISCID=a30b0c0c
DTITLE=Ron Cody - The Cooper Sessions
DYEAR=2016
DGENRE=Country
TTITLE0=Amanda's Reel
TTITLE1=The New Five Cents
TTITLE2=Stompin' Time
TTITLE3=This Can't Be Love
TTITLE4=Backstreet
TTITLE5=Tommy Jarrell's Bonaparte's
TTITLE6=Golden Eagle Hornpipe
TTITLE7=Cattle In The Cane
TTITLE8=Crazy Creek
TTITLE9=Bonaparte Crossing The Rhine
TTITLE10=The Cowboys Life Is a Very Dreary Life - Snake Chapman's Tune
TTITLE11=Acorn Stomp - High Level Hornpipe
EXTD=
EXTT0=
EXTT1=
EXTT2=
EXTT3=
EXTT4=
EXTT5=
EXTT6=
EXTT7=
EXTT8=
EXTT9=
EXTT10=
EXTT11=
PLAYORDER=
